<svg width="14" height="25" viewBox="0 0 14 25" fill="none" xmlns="http://www.w3.org/2000/svg">
<path fill-rule="evenodd" clip-rule="evenodd" d="M4 0.4C4 0.179086 4.17909 0 4.4 0H9.6C9.82091 0 10 0.179086 10 0.4V1.6C10 1.82091 9.82091 2 9.6 2H4.4C4.17909 2 4 1.82091 4 1.6V0.4ZM2 6H12V23H2L2 6ZM0 6C0 4.89543 0.895431 4 2 4H12C13.1046 4 14 4.89543 14 6V23C14 24.1046 13.1046 25 12 25H2C0.89543 25 0 24.1046 0 23V6ZM4 20C4 19.4477 4.44772 19 5 19H9C9.55228 19 10 19.4477 10 20C10 20.5523 9.55228 21 9 21H5C4.44772 21 4 20.5523 4 20ZM5 15C4.44772 15 4 15.4477 4 16C4 16.5523 4.44772 17 5 17H9C9.55228 17 10 16.5523 10 16C10 15.4477 9.55228 15 9 15H5ZM4 12C4 11.4477 4.44772 11 5 11H9C9.55228 11 10 11.4477 10 12C10 12.5523 9.55228 13 9 13H5C4.44772 13 4 12.5523 4 12ZM5 7C4.44772 7 4 7.44772 4 8C4 8.55228 4.44772 9 5 9H9C9.55228 9 10 8.55228 10 8C10 7.44772 9.55228 7 9 7H5Z" fill="white"/>
</svg>
