<svg width="25" height="25" viewBox="0 0 25 25" fill="none" xmlns="http://www.w3.org/2000/svg">
<path fill-rule="evenodd" clip-rule="evenodd" d="M12.5 23C18.299 23 23 18.299 23 12.5C23 6.70101 18.299 2 12.5 2C6.70101 2 2 6.70101 2 12.5C2 18.299 6.70101 23 12.5 23ZM12.5 25C19.4036 25 25 19.4036 25 12.5C25 5.59644 19.4036 0 12.5 0C5.59644 0 0 5.59644 0 12.5C0 19.4036 5.59644 25 12.5 25ZM10.6552 15.4853L18.4334 7.70711C18.8239 7.31658 19.4571 7.31658 19.8476 7.70711C20.2381 8.09763 20.2381 8.7308 19.8476 9.12132L11.3623 17.6066C10.9884 17.9805 10.3921 17.9964 9.99928 17.6544C9.98816 17.6447 9.9772 17.6347 9.96642 17.6245C9.9602 17.6186 9.95404 17.6126 9.94793 17.6065L5.70529 13.3638C5.31477 12.9733 5.31477 12.3401 5.70529 11.9496C6.09582 11.5591 6.72898 11.5591 7.11951 11.9496L10.6552 15.4853Z" fill="white"/>
</svg>
