<svg width="38" height="27" viewBox="0 0 38 27" fill="none" xmlns="http://www.w3.org/2000/svg">
<path d="M33.0178 7.89377C33.0178 4.86003 30.5168 2.39193 27.4426 2.39193C24.368 2.39193 21.8671 4.86003 21.8671 7.89377C21.8671 9.93675 23.0098 11.8013 24.849 12.7601C25.0086 12.8433 24.9834 13.0792 24.8102 13.1282C24.3102 13.2699 23.824 13.4507 23.3653 13.6651L23.3633 13.666C23.259 13.7148 23.135 13.6663 23.0915 13.5597C22.4637 12.0264 20.9792 11.0361 19.3098 11.0361C17.8707 11.0361 16.5217 11.8029 15.7899 13.038C15.7367 13.1276 15.623 13.1617 15.5286 13.1174C14.9579 12.8499 14.3609 12.6348 13.7537 12.4775C13.5733 12.4308 13.5492 12.1839 13.7177 12.1043C15.7685 11.1363 17.0936 9.06935 17.0936 6.83955C17.0936 3.61979 14.4389 1 11.1767 1C7.91402 1 5.25933 3.61979 5.25933 6.83955C5.25933 9.06974 6.58445 11.1367 8.63564 12.1047C8.80417 12.1843 8.78008 12.4312 8.59964 12.4779C4.12512 13.6347 1 17.6301 1 22.1935C1 22.5541 1.29238 22.8465 1.65305 22.8465H12.4499C12.5865 22.8465 12.6824 22.9812 12.6377 23.1104C12.3849 23.8421 12.2571 24.5945 12.2571 25.3469C12.2571 25.7076 12.5495 26 12.9101 26H25.7083C26.0692 26 26.3618 25.7074 26.3618 25.3465C26.3618 24.5937 26.234 23.8413 25.9812 23.11C25.9364 22.9808 26.0323 22.8461 26.169 22.8461H36.3469C36.7076 22.8461 37 22.5537 37 22.1931C37 18.0105 34.1524 14.283 30.0746 13.1282C29.9014 13.0792 29.8766 12.8434 30.0362 12.7601C31.8755 11.8017 33.0178 9.93675 33.0178 7.89377ZM19.3098 12.3426C20.8291 12.3426 22.0657 13.5625 22.0657 15.0622C22.0657 16.5619 20.8295 17.7818 19.3098 17.7818C17.7902 17.7818 16.554 16.5619 16.554 15.0622C16.554 13.5625 17.7902 12.3426 19.3098 12.3426ZM6.58283 6.83955C6.58283 4.33951 8.64373 2.3061 11.1767 2.3061C13.7096 2.3061 15.7705 4.33991 15.7705 6.83955C15.7705 9.33919 13.7096 11.3726 11.1767 11.3726C8.64373 11.3726 6.58283 9.33959 6.58283 6.83955ZM13.4681 21.4526C13.4301 21.5076 13.3676 21.5404 13.3007 21.5404H2.56522C2.44734 21.5404 2.35529 21.4385 2.36719 21.3213C2.81942 16.8381 6.6067 13.4571 11.1767 13.4571C12.573 13.4571 13.9102 13.7704 15.1516 14.3884C15.2266 14.4256 15.2712 14.5065 15.2613 14.5896C15.2406 14.7628 15.2305 14.9173 15.2305 15.0618C15.2305 16.4126 15.9153 17.6668 17.0621 18.4176C17.2007 18.5083 17.1731 18.7191 17.0164 18.7725C15.5784 19.2627 14.3184 20.2143 13.4681 21.4526ZM13.8474 24.6935C13.7248 24.6935 13.6312 24.5839 13.6506 24.4628C14.085 21.7432 16.518 19.693 19.3098 19.693C22.1013 19.693 24.5343 21.7436 24.9683 24.4628C24.9876 24.5839 24.8941 24.6935 24.7715 24.6935H13.8474ZM35.6292 21.3197C35.6421 21.4375 35.5499 21.5404 35.4314 21.5404H25.3179C25.2513 21.5404 25.1889 21.5076 25.1511 21.4526C24.3009 20.2143 23.0409 19.2627 21.6029 18.7725C21.4461 18.7191 21.4186 18.5083 21.5572 18.4176C22.6392 17.7095 23.3204 16.5232 23.3791 15.245C23.3823 15.1756 23.4216 15.113 23.4827 15.0799L23.4838 15.0793C24.6997 14.4175 26.0685 14.0678 27.443 14.0678C31.6595 14.0678 35.179 17.1854 35.6292 21.3197ZM27.4426 12.0899C25.0982 12.0899 23.1906 10.2078 23.1906 7.89377C23.1906 5.58015 25.0978 3.69803 27.4426 3.69803C29.7875 3.69803 31.6947 5.58015 31.6947 7.89377C31.6947 10.2078 29.7871 12.0899 27.4426 12.0899Z" fill="white" stroke="white" stroke-width="0.3"/>
</svg>
