<svg width="348" height="343" viewBox="0 0 348 343" fill="none" xmlns="http://www.w3.org/2000/svg">
<path d="M278.29 112.982C288.525 130.02 293.717 149.709 293.717 171.503C293.717 192.925 288.518 212.52 278.27 229.733V229.74C268.028 246.981 253.653 260.872 235.565 271.021C217.485 281.17 196.872 286.313 174.305 286.313C151.358 286.313 130.644 281.17 112.76 271.028C94.8629 260.885 80.4811 246.981 70.0087 229.7C59.577 212.486 54.2897 192.905 54.2897 171.497C54.2897 149.73 59.5769 130.053 69.9883 113.023C80.4607 95.945 94.8289 82.2367 112.713 72.2903C130.624 62.3237 151.345 57.2761 174.305 57.2761C196.872 57.2761 217.498 62.3305 235.613 72.2971C253.68 82.2502 268.042 95.9384 278.29 112.982ZM296.629 58.4602H316.04C324.558 58.467 331.596 55.6454 336.964 50.0836C342.285 44.5826 344.987 37.5662 344.987 29.2302C344.987 20.9077 342.292 13.9047 336.971 8.39697C331.582 2.82162 324.544 0 316.04 0H171.116L169.622 0.0677185L169.609 0.108368C138.368 1.15714 109.93 8.89767 85.0556 23.127C58.9457 38.0601 38.0145 58.6159 22.8522 84.2193C7.68986 109.856 0 139.222 0 171.497C0 203.778 7.68306 233.238 22.8454 259.058C37.9941 284.865 58.9321 305.529 85.0556 320.468C111.186 335.422 141.212 343 174.305 343C206.972 343 236.767 335.632 262.89 321.098C289.027 306.571 309.965 286.529 325.121 261.521C340.303 236.5 348 207.818 348 176.267C348 146.333 340.928 119.18 326.967 95.5323C318.707 81.5466 308.52 69.1035 296.629 58.4602Z" fill="white"/>
</svg>
