<svg width="18" height="18" viewBox="0 0 18 18" fill="none" xmlns="http://www.w3.org/2000/svg">
<path fill-rule="evenodd" clip-rule="evenodd" d="M5 0C2.23858 0 0 2.23858 0 5V13C0 15.7614 2.23858 18 5 18H13C15.7614 18 18 15.7614 18 13V5C18 2.23858 15.7614 0 13 0H5ZM15.8845 3.27298C15.8845 3.9112 15.3672 4.42858 14.7289 4.42858C14.0907 4.42858 13.5733 3.9112 13.5733 3.27298C13.5733 2.63476 14.0907 2.11738 14.7289 2.11738C15.3672 2.11738 15.8845 2.63476 15.8845 3.27298ZM8.99822 11.7936C10.5414 11.7936 11.7923 10.5426 11.7923 8.99946C11.7923 7.45632 10.5414 6.20535 8.99822 6.20535C7.45507 6.20535 6.2041 7.45632 6.2041 8.99946C6.2041 10.5426 7.45507 11.7936 8.99822 11.7936ZM8.99822 14.2936C11.9221 14.2936 14.2923 11.9233 14.2923 8.99946C14.2923 6.0756 11.9221 3.70535 8.99822 3.70535C6.07436 3.70535 3.7041 6.0756 3.7041 8.99946C3.7041 11.9233 6.07436 14.2936 8.99822 14.2936Z" fill="white"/>
</svg>
