<svg width="173" height="41" viewBox="0 0 173 41" fill="none" xmlns="http://www.w3.org/2000/svg">
<path d="M64.6197 11.7891C64.6197 13.3154 64.2758 14.7105 63.5997 15.9361C62.9248 17.1577 61.9962 18.129 60.8394 18.8222C59.6839 19.5144 58.3481 19.8656 56.87 19.8656C55.4161 19.8656 54.0863 19.514 52.9184 18.8213C51.7483 18.1281 50.8063 17.1558 50.1178 15.9329C49.4292 14.7095 49.0799 13.3154 49.0799 11.7891C49.0799 10.237 49.4292 8.83644 50.1173 7.62592C50.8054 6.41586 51.7483 5.44313 52.9212 4.73482C54.089 4.02971 55.418 3.67166 56.87 3.67166C58.3463 3.67166 59.6817 4.02925 60.8366 4.73344C61.9957 5.44175 62.9253 6.41402 63.6006 7.62316C64.2763 8.83506 64.6197 10.2365 64.6197 11.7891ZM68.4977 11.4691C68.4261 9.35746 67.901 7.43449 66.936 5.75253C65.9224 3.9861 64.5279 2.57085 62.7913 1.54533C61.0515 0.519806 59.0592 0.000152588 56.87 0.000152588C54.6798 0.000152588 52.6816 0.519806 50.9289 1.54487C49.1785 2.56947 47.7766 3.98518 46.7626 5.75253C45.7485 7.51988 45.2344 9.55118 45.2344 11.7891C45.2344 13.998 45.7343 16.0137 46.7199 17.7801C47.7059 19.5484 49.0661 20.9646 50.7623 21.9892C52.4599 23.0165 54.4062 23.5371 56.5468 23.5371C58.5767 23.5371 60.4193 23.0588 62.0233 22.1145C62.9721 21.5563 63.8168 20.8668 64.5384 20.0625V21.3754C64.5384 21.9515 64.7298 22.4276 65.1072 22.7907C65.4804 23.1506 65.9564 23.3333 66.5215 23.3333C67.0866 23.3333 67.5622 23.151 67.9354 22.7912C68.3132 22.4267 68.5046 21.9502 68.5046 21.3754V11.5733L68.5009 11.4696L68.4977 11.4691Z" fill="#ED1738"/>
<path d="M142.908 11.7906C142.908 13.3454 142.571 14.7478 141.908 15.9592C141.247 17.1656 140.32 18.1291 139.15 18.8228C137.982 19.5159 136.639 19.8671 135.159 19.8671C133.678 19.8671 132.334 19.5159 131.167 18.8228C129.996 18.1287 129.061 17.1642 128.387 15.956C127.711 14.7464 127.369 13.3449 127.369 11.7906C127.369 10.2357 127.712 8.82646 128.388 7.60262C129.062 6.38155 129.997 5.41112 131.167 4.71795C132.335 4.02478 133.679 3.67361 135.159 3.67361C136.638 3.67361 137.981 4.02477 139.15 4.7184C140.318 5.41065 141.246 6.38017 141.908 7.59987C142.571 8.82645 142.908 10.2362 142.908 11.7906ZM141.118 1.52571C139.381 0.514416 137.376 0.00164604 135.159 0.00164604C132.943 0.00164604 130.931 0.514416 129.179 1.52525C127.427 2.53654 126.031 3.94629 125.031 5.71593C124.031 7.48236 123.523 9.52651 123.523 11.7906C123.523 14.0275 124.031 16.0574 125.031 17.8248C126.031 19.594 127.427 21.0042 129.179 22.0159C130.93 23.0268 132.942 23.5391 135.159 23.5391C137.375 23.5391 139.38 23.0268 141.118 22.0155C142.856 21.0037 144.251 19.5944 145.265 17.8271C146.279 16.0588 146.794 14.0271 146.794 11.786C146.766 9.52376 146.246 7.4819 145.246 5.71593C144.246 3.9472 142.857 2.53746 141.118 1.52571Z" fill="#ED1738"/>
<path d="M165.037 18.8228C163.868 19.5159 162.525 19.8671 161.045 19.8671C159.564 19.8671 158.221 19.5159 157.053 18.8228C155.882 18.1287 154.947 17.1642 154.273 15.956C153.598 14.7464 153.256 13.3454 153.256 11.791C153.256 10.2362 153.599 8.82691 154.274 7.60262C154.949 6.38155 155.884 5.41111 157.053 4.7184C158.222 4.02523 159.565 3.67361 161.045 3.67361C162.524 3.67361 163.868 4.02523 165.037 4.7184C166.205 5.41065 167.132 6.38017 167.794 7.59987C168.458 8.82645 168.795 10.2367 168.795 11.791C168.795 13.3454 168.458 14.7478 167.795 15.9592C167.134 17.1656 166.206 18.1296 165.037 18.8228ZM171.133 5.71639C170.132 3.94766 168.744 2.53746 167.005 1.52571C165.267 0.514875 163.262 0.00164604 161.045 0.00164604C158.829 0.00164604 156.817 0.514416 155.066 1.52525C153.313 2.53654 151.918 3.94674 150.917 5.71593C149.917 7.48282 149.41 9.52651 149.41 11.7906C149.41 14.028 149.917 16.0579 150.917 17.8248C151.918 19.594 153.313 21.0042 155.066 22.0159C156.817 23.0268 158.829 23.5391 161.045 23.5391C163.262 23.5391 165.267 23.0268 167.005 22.0155C168.743 21.0037 170.138 19.5944 171.152 17.8271C172.166 16.0588 172.68 14.0271 172.68 11.786C172.653 9.52376 172.132 7.4819 171.133 5.71639Z" fill="#ED1738"/>
<path d="M89.3834 1.54787C87.6859 0.521427 85.7395 0.000394821 83.5989 0.000394821C81.5685 0.000394821 79.7259 0.479197 78.1224 1.42301C77.1745 1.98075 76.3298 2.67162 75.6068 3.48001V2.16207C75.6068 1.58596 75.4154 1.10992 75.0385 0.747272C74.6648 0.386917 74.1893 0.204222 73.6237 0.204222C73.0591 0.204222 72.5835 0.386456 72.2098 0.746353C71.8325 1.11084 71.6406 1.58734 71.6406 2.16207V21.4335C71.6406 22.4811 72.4926 23.3335 73.5402 23.3335H73.7073C74.7548 23.3335 75.6068 22.4811 75.6068 21.4335V11.4253C75.6068 10.3052 75.795 9.28334 76.1664 8.38865C76.2775 8.12148 76.4047 7.85706 76.5456 7.60137C77.2208 6.37984 78.1491 5.40895 79.3059 4.71532C80.4613 4.02307 81.7976 3.67236 83.2757 3.67236C84.7296 3.67236 86.059 4.02353 87.2273 4.71624C88.3969 5.40987 89.3393 6.38122 90.0275 7.60459C90.716 8.82796 91.0654 10.2221 91.0654 11.7484V21.4285C91.0654 22.1919 91.4955 22.8713 92.1621 23.1582C92.432 23.2748 92.7102 23.334 92.9902 23.334C93.3657 23.334 93.7297 23.2252 94.0437 23.0182C94.5868 22.6615 94.9109 22.0601 94.9109 21.411V11.7484C94.9109 9.53949 94.4114 7.5238 93.4258 5.75737C92.4398 3.9891 91.0796 2.57293 89.3834 1.54787Z" fill="#ED1738"/>
<path d="M37.1676 1.54787C35.4704 0.520967 33.5236 -5.34058e-05 31.3831 -5.34058e-05C25.7817 -5.34058e-05 22.853 2.71478 21.367 5.07017C20.4246 3.61589 19.2063 2.432 17.7423 1.54787C16.0452 0.520967 14.0993 -5.34058e-05 11.9588 -5.34058e-05C9.92791 -5.34058e-05 8.08482 0.478737 6.48135 1.42301C5.53479 1.97984 4.69013 2.6707 3.96667 3.48001V2.16207C3.96667 1.58596 3.77524 1.10946 3.39744 0.746813C3.02469 0.386457 2.54865 0.203762 1.9831 0.203762C1.41847 0.203762 0.942893 0.386456 0.569225 0.746353C0.191426 1.11084 0 1.58688 0 2.16207V21.4335C0 22.4811 0.852 23.3335 1.90001 23.3335H2.06619C3.11375 23.3335 3.96667 22.4811 3.96667 21.4335V11.4253C3.96667 10.3034 4.15487 9.28197 4.52579 8.38819C4.6378 8.11919 4.76541 7.85431 4.90542 7.60137C5.58023 6.37938 6.50889 5.40849 7.66524 4.71486C8.82113 4.02307 10.1565 3.6719 11.6351 3.6719C13.0889 3.6719 14.4184 4.02353 15.5866 4.71624C16.7563 5.40941 17.6987 6.38122 18.3873 7.60413C19.0759 8.82796 19.4248 10.2221 19.4248 11.7484V21.4285L19.4257 21.4473C19.4271 21.5524 19.4381 21.6617 19.4601 21.7828L19.4753 21.854C19.6043 22.4434 19.9958 22.9314 20.521 23.1582L20.5614 23.1706C20.8056 23.2789 21.0627 23.3335 21.3248 23.3335H21.491C22.539 23.3335 23.3914 22.4811 23.3914 21.4335V11.4253C23.3914 10.3034 23.5796 9.28197 23.951 8.38819C24.0626 8.11919 24.1902 7.85431 24.3302 7.60137C25.005 6.37938 25.9337 5.40849 27.0905 4.71532C28.2454 4.02307 29.5813 3.6719 31.0599 3.6719C32.5137 3.6719 33.8436 4.02353 35.0114 4.71624C36.1811 5.40941 37.1235 6.38122 37.8121 7.60459C38.5006 8.8275 38.85 10.2221 38.85 11.7484L38.8495 21.4285C38.8495 22.1919 39.2801 22.8708 39.9462 23.1582C40.2157 23.2748 40.4948 23.334 40.7743 23.334C41.1498 23.334 41.5139 23.2247 41.8279 23.0182C42.3714 22.661 42.6955 22.0601 42.6955 21.4106V11.7484C42.6955 9.53949 42.1956 7.5238 41.21 5.75691C40.2239 3.9891 38.8642 2.57293 37.1676 1.54787Z" fill="#ED1738"/>
<path d="M119.42 25.3317C118.91 25.2573 118.402 25.3858 117.99 25.6934C117.516 26.0473 117.065 26.3476 116.61 26.612C114.419 27.8863 111.932 28.5326 109.217 28.5326C106.508 28.5326 104.019 27.8895 101.822 26.6216C101.366 26.3581 100.913 26.0584 100.435 25.7044C100.021 25.3964 99.5125 25.2692 99.0043 25.3454C98.4948 25.4207 98.0454 25.6902 97.7383 26.1043C97.1048 26.9581 97.2843 28.1682 98.1376 28.8016C98.7358 29.2446 99.3101 29.6238 99.8931 29.9608C102.684 31.5716 105.821 32.3882 109.217 32.3887C112.623 32.3887 115.762 31.5665 118.549 29.9447C119.129 29.6077 119.7 29.2281 120.296 28.7837C120.708 28.4762 120.976 28.0259 121.05 27.5154C121.124 27.0054 120.996 26.4977 120.688 26.0854C120.381 25.6737 119.931 25.4056 119.42 25.3317Z" fill="#ED1738"/>
<path d="M116.405 7.66603C117.097 8.82193 117.448 10.1578 117.448 11.6364C117.448 13.0897 117.096 14.4191 116.403 15.587V15.5874C115.71 16.7571 114.738 17.6995 113.515 18.3881C112.292 19.0767 110.898 19.4256 109.371 19.4256C107.819 19.4256 106.418 19.0767 105.209 18.3885C103.998 17.7004 103.025 16.7571 102.317 15.5847C101.612 14.4168 101.254 13.0883 101.254 11.6359C101.254 10.1591 101.612 8.82421 102.316 7.66878C103.024 6.51013 103.996 5.5801 105.206 4.90529C106.417 4.22911 107.818 3.88666 109.371 3.88666C110.898 3.88666 112.293 4.22957 113.518 4.90575C114.74 5.58102 115.711 6.50968 116.405 7.66603ZM117.645 3.96699H118.958C119.534 3.96745 120.01 3.77602 120.373 3.39868C120.733 3.02547 120.916 2.54944 120.916 1.98389C120.916 1.41926 120.733 0.944139 120.373 0.570473C120.009 0.192213 119.533 0.000782013 118.958 0.000782013H109.156L109.055 0.00537682L109.054 0.00813484C106.941 0.0792866 105.017 0.604443 103.335 1.56983C101.569 2.58295 100.153 3.97755 99.1277 5.71461C98.1021 7.45395 97.582 9.44623 97.582 11.6359C97.582 13.826 98.1017 15.8247 99.1272 17.5765C100.152 19.3273 101.568 20.7293 103.335 21.7428C105.102 22.7573 107.133 23.2715 109.371 23.2715C111.581 23.2715 113.596 22.7716 115.363 21.7855C117.131 20.7999 118.547 19.4402 119.572 17.7436C120.599 16.046 121.119 14.1001 121.119 11.9595C121.119 9.92869 120.641 8.08652 119.697 6.48214C119.138 5.53328 118.449 4.68908 117.645 3.96699Z" fill="#ED1738"/>
<path d="M2.33932 34.9683H1.45657V38.0215H0V28.2997H1.45657V33.632H2.34943L4.26183 30.8649H5.98832L3.58887 34.3L6.2431 38.0215H4.46198L2.33932 34.9683Z" fill="#ED1738"/>
<path d="M7.47309 30.8649H8.92966V38.0215H7.47309V30.8649ZM7.44922 28.2382H8.95399V29.7563H7.44922V28.2382Z" fill="#ED1738"/>
<path d="M10.5664 34.4352C10.5664 32.2979 12.1653 30.6903 14.2829 30.6903C16.0342 30.6903 17.4021 31.7736 17.796 33.4157H16.3527C15.9805 32.5926 15.2028 32.095 14.2792 32.095C13.004 32.095 12.0487 33.1127 12.0487 34.4389C12.0487 35.7651 13.0168 36.7906 14.2792 36.7906C15.207 36.7906 15.9575 36.2857 16.3436 35.4153H17.813C17.4233 37.0876 16.0287 38.1953 14.2792 38.1953C12.169 38.1953 10.5664 36.573 10.5664 34.4352Z" fill="#ED1738"/>
<path d="M21.8042 34.9683H20.9214V38.0215H19.4648V28.2997H20.9214V33.632H21.8143L23.7267 30.8649H25.4532L23.0542 34.3L25.7079 38.0215H23.9273L21.8042 34.9683Z" fill="#ED1738"/>
<path d="M26.2227 35.749H27.6453C27.6829 36.506 28.3118 36.9012 29.1656 36.9012C29.9483 36.9012 30.5497 36.5666 30.5497 35.9685C30.5497 35.2895 29.7895 35.1344 28.9219 34.9865C27.7412 34.7823 26.3503 34.5114 26.3503 32.8529C26.3503 31.5689 27.4492 30.6903 29.0968 30.6903C30.7443 30.6903 31.8107 31.5955 31.8392 32.9837H30.4592C30.4317 32.3025 29.9185 31.9375 29.0628 31.9375C28.2576 31.9375 27.76 32.2832 27.76 32.8056C27.76 33.4372 28.4826 33.5621 29.3364 33.704C30.5345 33.9069 31.9888 34.1396 31.9888 35.9042C31.9888 37.2942 30.8416 38.1953 29.1151 38.1953C27.3923 38.1953 26.2598 37.2336 26.2227 35.749Z" fill="#ED1738"/>
<path d="M40.148 33.7082V38.0215H38.6919V34.0117C38.6919 32.7153 38.1428 32.0212 37.0664 32.0212C35.9651 32.0212 35.1636 32.9219 35.1636 34.1898V38.0215H33.707V28.2997H35.1636V31.6783C35.7067 31.0669 36.5169 30.7019 37.4639 30.7019C39.1174 30.7019 40.148 31.8647 40.148 33.7082Z" fill="#ED1738"/>
<path d="M47.8646 34.4394C47.8646 33.0902 46.8891 32.0913 45.5532 32.0913C44.2174 32.0913 43.2327 33.0994 43.2327 34.4394C43.2327 35.7789 44.2174 36.7874 45.5532 36.7874C46.8891 36.7874 47.8646 35.7885 47.8646 34.4394ZM49.3243 30.861V38.0177H48.1501L48.0078 37.1473C47.3665 37.8028 46.4713 38.1953 45.438 38.1953C43.3282 38.1953 41.75 36.5845 41.75 34.4394C41.75 32.2887 43.3282 30.6903 45.438 30.6903C46.4833 30.6903 47.3876 31.0887 48.0303 31.7557L48.2006 30.861H49.3243Z" fill="#ED1738"/>
<path d="M55.4997 30.8254V32.2145H54.7308C53.5267 32.2145 52.9253 32.9086 52.9253 34.2049V38.0215H51.4688V30.8649H52.4543L52.7004 31.8417C53.2072 31.1633 53.9026 30.8254 54.8699 30.8254H55.4997Z" fill="#ED1738"/>
<path d="M56.7548 30.8649H58.2114V38.0215H56.7548V30.8649ZM56.7305 28.2382H58.2352V29.7563H56.7305V28.2382Z" fill="#ED1738"/>
<path d="M66.7725 33.7124V38.0215H65.3164V34.0117C65.3164 32.7116 64.7564 32.0212 63.6914 32.0212C62.5782 32.0212 61.7881 32.9256 61.7881 34.1898V38.0215H60.332V30.8649H61.347L61.6298 31.8633C62.1659 31.1417 63.0409 30.7019 64.0816 30.7019C65.7378 30.7019 66.7725 31.9496 66.7725 33.7124Z" fill="#ED1738"/>
<path d="M74.1886 34.2579C74.1886 32.9904 73.2788 32.0632 72.0141 32.0632C70.7536 32.0632 69.8299 32.9996 69.8299 34.2579C69.8299 35.5106 70.7499 36.4471 72.0141 36.4471C73.2747 36.4471 74.1886 35.5198 74.1886 34.2579ZM75.6204 30.8655V37.0852C75.6204 39.368 74.2768 40.7617 72.0848 40.7617C70.2702 40.7617 68.9821 39.8106 68.6203 38.2392H70.0728C70.3445 39.0242 71.1786 39.4575 72.0742 39.4575C73.299 39.4575 74.1941 38.6423 74.1941 37.2858V36.9562C73.5799 37.4933 72.7669 37.8119 71.8488 37.8119C69.8772 37.8119 68.3477 36.263 68.3477 34.2579C68.3477 32.2569 69.8772 30.691 71.8488 30.691C72.8877 30.691 73.798 31.1074 74.4333 31.7886L74.6651 30.8655H75.6204Z" fill="#ED1738"/>
</svg>
