<svg width="126" height="30" viewBox="0 0 126 30" fill="none" xmlns="http://www.w3.org/2000/svg">
<path d="M47.1527 8.60356C47.1527 9.71729 46.9018 10.7352 46.4084 11.6296C45.916 12.5209 45.2384 13.2296 44.3943 13.7354C43.5513 14.2405 42.5765 14.4968 41.498 14.4968C40.4372 14.4968 39.4668 14.2402 38.6147 13.7348C37.7609 13.229 37.0735 12.5195 36.5711 11.6272C36.0687 10.7346 35.8137 9.71729 35.8137 8.60356C35.8137 7.47107 36.0687 6.44912 36.5708 5.56584C37.0729 4.68289 37.7609 3.97312 38.6167 3.45628C39.4688 2.94179 40.4385 2.68052 41.498 2.68052C42.5752 2.68052 43.5496 2.94145 44.3923 3.45527C45.2381 3.97211 45.9164 4.68155 46.4091 5.56383C46.9022 6.44811 47.1527 7.47074 47.1527 8.60356ZM49.9824 8.3701C49.9302 6.82929 49.547 5.42616 48.8429 4.19888C48.1033 2.90996 47.0857 1.87729 45.8186 1.129C44.5491 0.380707 43.0954 0.00152969 41.498 0.00152969C39.8999 0.00152969 38.4418 0.380707 37.163 1.12866C35.8858 1.87629 34.8628 2.90929 34.1229 4.19888C33.383 5.48846 33.0078 6.97064 33.0078 8.60356C33.0078 10.2154 33.3726 11.6862 34.0917 12.9751C34.8112 14.2653 35.8037 15.2987 37.0414 16.0463C38.28 16.7959 39.7003 17.1758 41.2622 17.1758C42.7433 17.1758 44.0879 16.8268 45.2582 16.1378C45.9505 15.7304 46.5669 15.2273 47.0934 14.6405V15.5985C47.0934 16.0188 47.2331 16.3662 47.5084 16.6311C47.7808 16.8937 48.1281 17.0271 48.5404 17.0271C48.9528 17.0271 49.2998 16.8941 49.5721 16.6315C49.8478 16.3655 49.9875 16.0178 49.9875 15.5985V8.44613L49.9848 8.37043L49.9824 8.3701Z" fill="white"/>
<path d="M104.277 8.60322C104.277 9.73772 104.032 10.761 103.548 11.645C103.065 12.5252 102.389 13.2283 101.535 13.7344C100.683 14.2402 99.7025 14.4965 98.6226 14.4965C97.5421 14.4965 96.562 14.2402 95.7098 13.7344C94.8554 13.228 94.1731 12.5242 93.6817 11.6426C93.1886 10.76 92.9387 9.73739 92.9387 8.60322C92.9387 7.46873 93.189 6.44041 93.6824 5.54741C94.1744 4.65643 94.8567 3.94833 95.7098 3.44255C96.5626 2.93676 97.5427 2.68052 98.6226 2.68052C99.7019 2.68052 100.682 2.93676 101.535 3.44288C102.387 3.94799 103.064 4.65542 103.547 5.5454C104.032 6.44041 104.277 7.46906 104.277 8.60322ZM102.971 1.11326C101.704 0.375349 100.24 0.001194 98.6226 0.001194C97.0058 0.001194 95.5377 0.375347 94.2595 1.11292C92.981 1.85083 91.9627 2.87949 91.2325 4.17075C90.5029 5.45966 90.1328 6.95122 90.1328 8.60322C90.1328 10.2355 90.5029 11.7166 91.2325 13.0062C91.9627 14.2972 92.981 15.3261 94.2595 16.0644C95.5373 16.802 97.0055 17.1758 98.6226 17.1758C100.24 17.1758 101.703 16.802 102.971 16.0641C104.239 15.3258 105.257 14.2975 105.997 13.0079C106.737 11.7177 107.112 10.2351 107.112 8.59988C107.092 6.94921 106.713 5.45932 105.983 4.17075C105.253 2.88016 104.24 1.8515 102.971 1.11326Z" fill="white"/>
<path d="M120.422 13.7344C119.569 14.2402 118.589 14.4965 117.509 14.4965C116.429 14.4965 115.449 14.2402 114.597 13.7344C113.742 13.228 113.059 12.5242 112.568 11.6426C112.075 10.76 111.825 9.73772 111.825 8.60356C111.825 7.46906 112.076 6.44074 112.569 5.54741C113.061 4.65643 113.743 3.94833 114.597 3.44288C115.449 2.93709 116.429 2.68052 117.509 2.68052C118.589 2.68052 119.569 2.93709 120.422 3.44288C121.274 3.94799 121.951 4.65542 122.434 5.5454C122.918 6.44041 123.164 7.4694 123.164 8.60356C123.164 9.73772 122.918 10.761 122.434 11.645C121.952 12.5252 121.275 13.2286 120.422 13.7344ZM124.87 4.17108C124.14 2.88049 123.127 1.8515 121.858 1.11326C120.59 0.375683 119.127 0.001194 117.509 0.001194C115.892 0.001194 114.424 0.375347 113.146 1.11292C111.868 1.85083 110.849 2.87982 110.119 4.17075C109.389 5.45999 109.02 6.95122 109.02 8.60322C109.02 10.2358 109.389 11.717 110.119 13.0062C110.849 14.2972 111.868 15.3261 113.146 16.0644C114.424 16.802 115.892 17.1758 117.509 17.1758C119.127 17.1758 120.59 16.802 121.858 16.0641C123.126 15.3258 124.144 14.2975 124.884 13.0079C125.624 11.7177 125.999 10.2351 125.999 8.59988C125.979 6.94921 125.599 5.45932 124.87 4.17108Z" fill="white"/>
<path d="M65.2199 1.13063C63.9812 0.381666 62.561 0.00148201 60.9991 0.00148201C59.5176 0.00148201 58.173 0.350851 57.003 1.03952C56.3113 1.44649 55.695 1.9506 55.1675 2.54046V1.5788C55.1675 1.15843 55.0278 0.811073 54.7528 0.546457C54.4801 0.283518 54.1331 0.150209 53.7204 0.150209C53.3085 0.150209 52.9614 0.283182 52.6888 0.545788C52.4134 0.811743 52.2734 1.15943 52.2734 1.5788V15.6406C52.2734 16.405 52.8951 17.027 53.6595 17.027H53.7814C54.5458 17.027 55.1675 16.405 55.1675 15.6406V8.33789C55.1675 7.5206 55.3048 6.77499 55.5758 6.12216C55.6568 5.92721 55.7496 5.73427 55.8524 5.5477C56.3452 4.65638 57.0225 3.94795 57.8665 3.44183C58.7096 2.93672 59.6847 2.68081 60.7633 2.68081C61.8241 2.68081 62.7941 2.93705 63.6466 3.4425C64.5 3.94862 65.1877 4.65739 65.6898 5.55005C66.1922 6.44271 66.4471 7.45997 66.4471 8.57371V15.6369C66.4471 16.194 66.761 16.6897 67.2473 16.8991C67.4443 16.9841 67.6473 17.0273 67.8516 17.0273C68.1256 17.0273 68.3912 16.948 68.6203 16.7969C69.0166 16.5366 69.2531 16.0978 69.2531 15.6242V8.57371C69.2531 6.96189 68.8886 5.4911 68.1695 4.20218C67.45 2.91193 66.4575 1.87859 65.2199 1.13063Z" fill="white"/>
<path d="M27.1201 1.13063C25.8818 0.38133 24.4612 0.00115585 22.8993 0.00115585C18.8122 0.00115585 16.6752 1.98209 15.5909 3.70075C14.9032 2.63961 14.0143 1.77576 12.9461 1.13063C11.7077 0.38133 10.2879 0.00115585 8.72596 0.00115585C7.24411 0.00115585 5.89926 0.350515 4.72926 1.03952C4.03858 1.44582 3.42226 1.94993 2.89436 2.54046V1.5788C2.89436 1.15843 2.75469 0.81074 2.47902 0.546124C2.20703 0.283182 1.85968 0.149874 1.44701 0.149874C1.03502 0.149874 0.688002 0.283182 0.415347 0.545788C0.139678 0.811743 0 1.1591 0 1.5788V15.6406C0 16.405 0.62168 17.027 1.38639 17.027H1.50764C2.27201 17.027 2.89436 16.405 2.89436 15.6406V8.33789C2.89436 7.51926 3.03169 6.77398 3.30234 6.12182C3.38407 5.92554 3.47719 5.73226 3.57935 5.5477C4.07174 4.65605 4.74935 3.94762 5.59311 3.4415C6.43653 2.93672 7.41092 2.68048 8.48982 2.68048C9.55062 2.68048 10.5207 2.93705 11.3731 3.4425C12.2266 3.94829 12.9143 4.65739 13.4167 5.54971C13.9191 6.44271 14.1737 7.45997 14.1737 8.57371V15.6369L14.1744 15.6507C14.1754 15.7274 14.1834 15.8071 14.1995 15.8955L14.2105 15.9474C14.3047 16.3775 14.5904 16.7336 14.9736 16.8991L15.0031 16.9081C15.1812 16.9872 15.3688 17.027 15.5601 17.027H15.6813C16.446 17.027 17.0681 16.405 17.0681 15.6406V8.33789C17.0681 7.51926 17.2054 6.77398 17.4764 6.12182C17.5578 5.92554 17.6509 5.73226 17.7531 5.5477C18.2454 4.65605 18.9231 3.94762 19.7671 3.44183C20.6099 2.93672 21.5846 2.68048 22.6635 2.68048C23.7243 2.68048 24.6947 2.93705 25.5468 3.4425C26.4003 3.94829 27.088 4.65739 27.5904 5.55005C28.0928 6.44237 28.3477 7.45997 28.3477 8.57371L28.3474 15.6369C28.3474 16.194 28.6616 16.6894 29.1476 16.8991C29.3442 16.9841 29.5479 17.0273 29.7519 17.0273C30.0259 17.0273 30.2915 16.9476 30.5206 16.7969C30.9172 16.5363 31.1537 16.0978 31.1537 15.6239V8.57371C31.1537 6.96189 30.7889 5.4911 30.0697 4.20185C29.3503 2.91193 28.3581 1.87859 27.1201 1.13063Z" fill="white"/>
<path d="M87.1362 18.4835C86.7641 18.4293 86.3936 18.523 86.0925 18.7475C85.7468 19.0057 85.4175 19.2248 85.0859 19.4177C83.4872 20.3476 81.6721 20.8192 79.6911 20.8192C77.7145 20.8192 75.8987 20.3499 74.295 19.4248C73.9624 19.2325 73.6318 19.0138 73.2834 18.7555C72.9813 18.5308 72.6101 18.438 72.2393 18.4936C71.8675 18.5485 71.5396 18.7451 71.3155 19.0473C70.8533 19.6703 70.9843 20.5532 71.6069 21.0155C72.0434 21.3387 72.4624 21.6154 72.8878 21.8612C74.9244 23.0366 77.2134 23.6325 79.6911 23.6328C82.1762 23.6328 84.4673 23.0329 86.5005 21.8495C86.9235 21.6036 87.3405 21.3266 87.7753 21.0024C88.0761 20.778 88.2714 20.4494 88.3253 20.0769C88.3796 19.7048 88.2858 19.3343 88.0614 19.0335C87.8369 18.7331 87.5087 18.5374 87.1362 18.4835Z" fill="white"/>
<path d="M84.9374 5.59361C85.4425 6.43703 85.6987 7.41176 85.6987 8.49065C85.6987 9.55113 85.4422 10.5212 84.9364 11.3733V11.3736C84.4309 12.2271 83.7215 12.9148 82.8288 13.4172C81.9365 13.9196 80.9192 14.1742 79.8055 14.1742C78.673 14.1742 77.6507 13.9196 76.7681 13.4175C75.8848 12.9154 75.175 12.2271 74.6582 11.3716C74.1434 10.5195 73.8824 9.55012 73.8824 8.49032C73.8824 7.41276 74.1434 6.4387 74.6572 5.59562C75.174 4.75018 75.8831 4.07156 76.7658 3.57918C77.6497 3.08578 78.6723 2.83591 79.8055 2.83591C80.9192 2.83591 81.9372 3.08612 82.8312 3.57951C83.7228 4.07223 84.4316 4.74986 84.9374 5.59361ZM85.8424 2.89453H86.8004C87.2208 2.89486 87.5681 2.75518 87.8331 2.47985C88.0957 2.20753 88.229 1.86018 88.229 1.44751C88.229 1.03552 88.096 0.688835 87.8334 0.416182C87.5674 0.140177 87.2201 0.000494003 86.8004 0.000494003H79.6481L79.5744 0.00384712L79.5737 0.00585938C78.0319 0.0577774 76.6284 0.440968 75.4008 1.14538C74.1122 1.88463 73.0792 2.90223 72.3309 4.16971C71.5826 5.43886 71.2031 6.89257 71.2031 8.49032C71.2031 10.0884 71.5823 11.5468 72.3306 12.825C73.0782 14.1025 74.1116 15.1255 75.4008 15.8651C76.6904 16.6053 78.1722 16.9805 79.8055 16.9805C81.4176 16.9805 82.8881 16.6157 84.1773 15.8962C85.4673 15.1771 86.5006 14.1849 87.2486 12.9469C87.9979 11.7082 88.3777 10.2884 88.3777 8.72646C88.3777 7.24461 88.0287 5.90043 87.3397 4.72976C86.932 4.0374 86.4293 3.42141 85.8424 2.89453Z" fill="white"/>
<path d="M1.70694 25.5183H1.06282V27.7461H0V20.6524H1.06282V24.5432H1.71431L3.10974 22.5241H4.36951L2.61869 25.0306L4.55541 27.7461H3.25578L1.70694 25.5183Z" fill="white"/>
<path d="M5.45101 22.5241H6.51383V27.7461H5.45101V22.5241ZM5.43359 20.6075H6.53158V21.7152H5.43359V20.6075Z" fill="white"/>
<path d="M7.71094 25.1275C7.71094 23.5679 8.87759 22.3949 10.4227 22.3949C11.7006 22.3949 12.6988 23.1854 12.9862 24.3835H11.9331C11.6614 23.7829 11.094 23.4199 10.4201 23.4199C9.48956 23.4199 8.79251 24.1625 8.79251 25.1301C8.79251 26.0978 9.49894 26.8461 10.4201 26.8461C11.097 26.8461 11.6447 26.4777 11.9264 25.8426H12.9986C12.7142 27.0628 11.6966 27.8711 10.4201 27.8711C8.88027 27.8711 7.71094 26.6874 7.71094 25.1275Z" fill="white"/>
<path d="M15.9101 25.5183H15.2659V27.7461H14.2031V20.6524H15.2659V24.5432H15.9174L17.3129 22.5241H18.5726L16.8222 25.0306L18.7585 27.7461H17.4592L15.9101 25.5183Z" fill="white"/>
<path d="M19.1328 26.0861H20.1708C20.1983 26.6385 20.6572 26.9269 21.2802 26.9269C21.8513 26.9269 22.2901 26.6827 22.2901 26.2462C22.2901 25.7508 21.7354 25.6376 21.1024 25.5297C20.2409 25.3807 19.2259 25.1831 19.2259 23.9729C19.2259 23.036 20.0278 22.3949 21.23 22.3949C22.4321 22.3949 23.2102 23.0554 23.231 24.0683H22.2241C22.204 23.5713 21.8295 23.305 21.2052 23.305C20.6177 23.305 20.2546 23.5572 20.2546 23.9384C20.2546 24.3993 20.7818 24.4904 21.4048 24.5939C22.2791 24.7419 23.3402 24.9118 23.3402 26.1993C23.3402 27.2136 22.5031 27.8711 21.2434 27.8711C19.9863 27.8711 19.1599 27.1694 19.1328 26.0861Z" fill="white"/>
<path d="M29.2935 24.5988V27.7461H28.2311V24.8203C28.2311 23.8743 27.8304 23.3679 27.045 23.3679C26.2414 23.3679 25.6566 24.0251 25.6566 24.9502V27.7461H24.5938V20.6524H25.6566V23.1177C26.0528 22.6715 26.644 22.4052 27.335 22.4052C28.5416 22.4052 29.2935 23.2537 29.2935 24.5988Z" fill="white"/>
<path d="M34.9265 25.1305C34.9265 24.146 34.2147 23.4172 33.24 23.4172C32.2652 23.4172 31.5468 24.1527 31.5468 25.1305C31.5468 26.1079 32.2652 26.8438 33.24 26.8438C34.2147 26.8438 34.9265 26.1149 34.9265 25.1305ZM35.9916 22.5195V27.7415H35.1348L35.031 27.1064C34.563 27.5847 33.9099 27.8711 33.1559 27.8711C31.6164 27.8711 30.4648 26.6957 30.4648 25.1305C30.4648 23.5612 31.6164 22.3949 33.1559 22.3949C33.9186 22.3949 34.5785 22.6856 35.0474 23.1723L35.1717 22.5195H35.9916Z" fill="white"/>
<path d="M40.4959 22.4953V23.5089H39.9349C39.0563 23.5089 38.6175 24.0153 38.6175 24.9613V27.7461H37.5547V22.5241H38.2738L38.4534 23.2369C38.8232 22.7418 39.3306 22.4953 40.0364 22.4953H40.4959Z" fill="white"/>
<path d="M41.4123 22.5241H42.4751V27.7461H41.4123V22.5241ZM41.3945 20.6075H42.4925V21.7152H41.3945V20.6075Z" fill="white"/>
<path d="M48.7229 24.6019V27.7461H47.6604V24.8203C47.6604 23.8717 47.2517 23.3679 46.4746 23.3679C45.6624 23.3679 45.0859 24.0277 45.0859 24.9502V27.7461H44.0234V22.5241H44.764L44.9704 23.2527C45.3616 22.7261 46 22.4052 46.7594 22.4052C47.9679 22.4052 48.7229 23.3156 48.7229 24.6019Z" fill="white"/>
<path d="M54.1331 24.9965C54.1331 24.0717 53.4692 23.3951 52.5464 23.3951C51.6266 23.3951 50.9527 24.0784 50.9527 24.9965C50.9527 25.9106 51.6239 26.5939 52.5464 26.5939C53.4662 26.5939 54.1331 25.9173 54.1331 24.9965ZM55.1778 22.5212V27.0595C55.1778 28.7253 54.1974 29.7422 52.598 29.7422C51.2739 29.7422 50.334 29.0482 50.0701 27.9016H51.1299C51.3282 28.4744 51.9368 28.7906 52.5903 28.7906C53.4839 28.7906 54.1371 28.1957 54.1371 27.2059V26.9654C53.6889 27.3573 53.0957 27.5898 52.4258 27.5898C50.9872 27.5898 49.8711 26.4596 49.8711 24.9965C49.8711 23.5364 50.9872 22.3939 52.4258 22.3939C53.1838 22.3939 53.848 22.6977 54.3116 23.1948L54.4808 22.5212H55.1778Z" fill="white"/>
</svg>
