<svg width="21" height="29" viewBox="0 0 21 29" fill="none" xmlns="http://www.w3.org/2000/svg">
<path d="M19.5385 22.6941C19.0868 22.6277 18.6371 22.7425 18.2716 23.0173C17.852 23.3334 17.4524 23.6016 17.0499 23.8378C15.1093 24.9762 12.9062 25.5535 10.5017 25.5535C8.10259 25.5535 5.8986 24.979 3.95197 23.8464C3.54825 23.6111 3.14696 23.3433 2.72414 23.0271C2.35741 22.752 1.90694 22.6384 1.45688 22.7064C1.00559 22.7737 0.607558 23.0144 0.335566 23.3843C-0.225494 24.147 -0.0665196 25.2279 0.689285 25.7938C1.21904 26.1895 1.72765 26.5282 2.24399 26.8292C4.71591 28.2681 7.49437 28.9976 10.5017 28.998C13.518 28.998 16.2989 28.2636 18.7668 26.8149C19.2803 26.5139 19.7865 26.1748 20.3142 25.7778C20.6793 25.5031 20.9163 25.1008 20.9818 24.6448C21.0476 24.1892 20.9338 23.7357 20.6614 23.3675C20.389 22.9996 19.9906 22.7602 19.5385 22.6941Z" fill="white"/>
<path d="M16.8295 6.8685C17.4419 7.90422 17.7525 9.10118 17.7525 10.4261C17.7525 11.7283 17.4415 12.9195 16.8283 13.9659V13.9664C16.2156 15.0144 15.3555 15.8589 14.2733 16.4759C13.1916 17.0928 11.9584 17.4055 10.6082 17.4055C9.23532 17.4055 7.99602 17.0929 6.92604 16.4763C5.85525 15.8597 4.9948 15.0144 4.36824 13.9639C3.74412 12.9175 3.42779 11.7271 3.42779 10.4257C3.42779 9.10242 3.74412 7.90627 4.36702 6.87096C4.99358 5.83277 5.85321 4.99942 6.92319 4.39477C7.99479 3.78889 9.23451 3.48204 10.6082 3.48204C11.9584 3.48204 13.1924 3.7893 14.2762 4.39518C15.3571 5.00025 16.2164 5.83237 16.8295 6.8685ZM17.9267 3.55402H19.0881C19.5977 3.55443 20.0188 3.3829 20.34 3.04479C20.6583 2.71038 20.8199 2.28384 20.8199 1.77709C20.8199 1.27116 20.6587 0.845432 20.3404 0.510612C20.0179 0.171679 19.5969 0.000148773 19.0881 0.000148773H10.4174L10.328 0.00426483L10.3272 0.00673676C8.45812 0.0704918 6.75671 0.54105 5.26848 1.40607C3.70635 2.31387 2.45406 3.56348 1.54691 5.11995C0.639765 6.67846 0.179688 8.46362 0.179688 10.4257C0.179688 12.3881 0.639358 14.179 1.5465 15.7486C2.45284 17.3174 3.70554 18.5736 5.26848 19.4818C6.83183 20.3909 8.62825 20.8516 10.6082 20.8516C12.5626 20.8516 14.3452 20.4036 15.9082 19.5201C17.4719 18.637 18.7246 17.4186 19.6314 15.8984C20.5397 14.3773 21.0002 12.6337 21.0002 10.7156C21.0002 8.89592 20.5771 7.24527 19.7418 5.80768C19.2476 4.95747 18.6381 4.20104 17.9267 3.55402Z" fill="white"/>
</svg>
