<svg width="24" height="25" viewBox="0 0 24 25" fill="none" xmlns="http://www.w3.org/2000/svg">
<path fill-rule="evenodd" clip-rule="evenodd" d="M8.99826 0.4C8.99826 0.179086 9.17735 0 9.39826 0H14.5983C14.8192 0 14.9983 0.179086 14.9983 0.4V1.6C14.9983 1.82091 14.8192 2 14.5983 2H9.39826C9.17735 2 8.99826 1.82091 8.99826 1.6V0.4ZM16.9983 6H6.99826V16.5625L10.5608 13H9.99826C9.44598 13 8.99826 12.5523 8.99826 12C8.99826 11.4477 9.44598 11 9.99826 11H12.5608L16.9983 6.5625V6ZM18.6656 4.89513C18.3074 4.35564 17.6944 4 16.9983 4H6.99826C5.89369 4 4.99826 4.89543 4.99826 6V18.5625L0.706951 22.8538C0.316427 23.2443 0.316427 23.8775 0.706951 24.268C1.09748 24.6585 1.73064 24.6585 2.12117 24.268L23.2679 3.12132C23.6584 2.7308 23.6584 2.09763 23.2679 1.70711C22.8773 1.31658 22.2442 1.31658 21.8537 1.70711L18.6656 4.89513ZM5.03036 23.3588L6.99826 21.3909V23H16.9983V11.3909L18.9983 9.39093V23C18.9983 24.1046 18.1028 25 16.9983 25H6.99826C6.01618 25 5.19943 24.2922 5.03036 23.3588ZM13.9983 15H13.3892L11.3892 17H13.9983C14.5505 17 14.9983 16.5523 14.9983 16C14.9983 15.4477 14.5505 15 13.9983 15ZM9.99826 19C9.44598 19 8.99826 19.4477 8.99826 20C8.99826 20.5523 9.44598 21 9.99826 21H13.9983C14.5505 21 14.9983 20.5523 14.9983 20C14.9983 19.4477 14.5505 19 13.9983 19H9.99826Z" fill="white"/>
</svg>
