<svg width="19" height="27" viewBox="0 0 19 27" fill="none" xmlns="http://www.w3.org/2000/svg">
<path d="M15.6892 14.2152L15.6895 14.2149C17.2629 12.7291 18.05 10.8825 18.05 8.67857C18.05 6.47469 17.263 4.63991 15.6894 3.17781C14.116 1.69211 12.1494 0.95 9.7931 0.95H1.5C1.19624 0.95 0.95 1.19624 0.95 1.5V25.5C0.95 25.8038 1.19624 26.05 1.5 26.05H2.3319C2.63565 26.05 2.8819 25.8038 2.8819 25.5V16.8571C2.8819 16.6086 3.08337 16.4071 3.3319 16.4071H9.7931C12.1492 16.4071 14.1158 15.6771 15.6892 14.2152ZM14.2654 4.5008L14.2658 4.50115C15.4765 5.61051 16.0815 7.00179 16.0815 8.67857C16.0815 10.3553 15.4765 11.7586 14.2656 12.8919C13.0546 14.0014 11.5406 14.5571 9.71983 14.5571H3.3319C3.08337 14.5571 2.8819 14.3557 2.8819 14.1071V3.25C2.8819 3.00147 3.08337 2.8 3.3319 2.8H9.71983C11.5404 2.8 13.0543 3.36746 14.2654 4.5008Z" fill="white" stroke="white" stroke-width="0.1"/>
</svg>
