<svg width="21" height="25" viewBox="0 0 21 25" fill="none" xmlns="http://www.w3.org/2000/svg">
<path fill-rule="evenodd" clip-rule="evenodd" d="M21 10.5C21 13.4401 19.7916 16.098 17.8443 18.0041L11.2071 24.6413C10.8166 25.0318 10.1834 25.0318 9.79289 24.6413L3.1557 18.0041C1.20843 16.098 0 13.4401 0 10.5C0 4.70101 4.70101 0 10.5 0C16.299 0 21 4.70101 21 10.5ZM10.5016 18.8996C15.1408 18.8996 18.9016 15.1388 18.9016 10.4996C18.9016 5.86042 15.1408 2.09961 10.5016 2.09961C5.86237 2.09961 2.10156 5.86042 2.10156 10.4996C2.10156 15.1388 5.86237 18.8996 10.5016 18.8996Z" fill="white"/>
<rect x="6" y="7" width="9" height="2" rx="1" fill="white"/>
<rect x="6" y="11" width="9" height="2" rx="1" fill="white"/>
</svg>
