<svg width="24" height="24" viewBox="0 0 24 24" fill="none" xmlns="http://www.w3.org/2000/svg">
<path fill-rule="evenodd" clip-rule="evenodd" d="M0 6.9999V0H6.9999V6.9999H0ZM2.0001 5.0001H5.0001V2.0001H2.0001V5.0001ZM0 24V16.9998H6.9999V24H0ZM2.0001 22.0002H5.0001V19.0002H2.0001V22.0002ZM17.0004 0V6.9999H24.0003V0H17.0004ZM22.0002 5.0001H19.0002V2.0001H22.0002V5.0001ZM22.0002 15V9H24.0003V16.9998H17.0004V15H22.0002ZM17.0004 19.0002V24H19.0002V21H22.0002V24H24.0003V19.0002H17.0004ZM9 2.0001V0H15V6.9999H12.9999V2.0001H9ZM12.9999 9V13.0002H9V19.0002H12.9999V24H15V16.9998H11.0001V15H15V11.0001H17.0001V13.0002H18.9999V9H12.9999ZM9 21H11.0001V24H9V21ZM6.99961 13.0002H3.99961V15H6.99961V13.0002ZM9 8.99971V3.99961H11.0001V10.9998H2.0001V14.9997H0V8.99971H9Z" fill="white"/>
</svg>
