<svg width="25" height="25" viewBox="0 0 25 25" fill="none" xmlns="http://www.w3.org/2000/svg">
<path fill-rule="evenodd" clip-rule="evenodd" d="M2.61569 13.9169C1.00864 12.4537 0 10.3446 0 8C0 3.58172 3.58172 0 8 0C10.7001 0 13.0878 1.33768 14.5365 3.38648C15.3125 3.13556 16.1404 3 17 3C21.4183 3 25 6.58172 25 11C25 15.163 21.8202 18.5833 17.757 18.9647C16.8812 22.433 13.7404 25 10 25C5.58172 25 2 21.4183 2 17C2 15.9073 2.21907 14.8658 2.61569 13.9169ZM8 14C8.52051 14 9.02554 13.9337 9.50711 13.8091C9.18846 12.9596 9.01015 12.0414 9.00042 11.0829C7.48023 11.3378 6.15385 12.1644 5.24984 13.334C6.07368 13.7596 7.00877 14 8 14ZM3.65037 12.1329C2.62763 11.0569 2 9.60173 2 8C2 4.68629 4.68629 2 8 2C9.89872 2 11.5914 2.88196 12.6909 4.25855C11.0026 5.33996 9.74728 7.03822 9.24302 9.03535C6.96712 9.24895 4.9684 10.416 3.65037 12.1329ZM11.0006 11.0831C11.0096 11.7497 11.1274 12.39 11.3369 12.9872C11.8763 12.6256 12.3538 12.1788 12.7502 11.666C12.2097 11.3868 11.6213 11.1873 11.0006 11.0831ZM13.6925 9.90129C12.9564 9.51762 12.1532 9.24508 11.3051 9.10592C11.7288 7.83133 12.5684 6.74663 13.6631 6.01277C13.8813 6.63471 14 7.3035 14 8C14 8.66453 13.892 9.30383 13.6925 9.90129ZM14.3496 12.8671C13.7841 13.6037 13.0934 14.2391 12.3091 14.7415C13.2112 15.8709 14.5126 16.6673 15.9994 16.9169C15.9781 15.348 15.3547 13.9245 14.3496 12.8671ZM17.9996 16.9171C17.9761 14.6057 16.9724 12.529 15.3843 11.0831C15.7809 10.1342 16 9.0927 16 8C16 7.0115 15.8207 6.06487 15.4929 5.19086C15.9745 5.06628 16.4795 5 17 5C20.3137 5 23 7.68629 23 11C23 13.9731 20.8375 16.4412 17.9996 16.9171ZM15.6949 18.8941C13.5393 18.5404 11.6737 17.3251 10.4635 15.6135C9.68747 15.8644 8.85957 16 8 16C6.66807 16 5.41217 15.6745 4.30749 15.0987C4.10803 15.6962 4 16.3355 4 17C4 20.3137 6.68629 23 10 23C12.6519 23 14.9019 21.2796 15.6949 18.8941Z" fill="white"/>
</svg>
