<svg width="351" height="104" viewBox="0 0 351 104" fill="none" xmlns="http://www.w3.org/2000/svg">
<path d="M326.571 0.302582C319.022 -0.790184 311.506 1.09863 305.397 5.61806C298.384 10.8188 291.704 15.2303 284.976 19.1157C252.542 37.841 215.717 47.3384 175.529 47.3384C135.429 47.3384 98.591 37.8882 66.0544 19.2573C59.3065 15.3854 52.5993 10.9807 45.532 5.77995C39.4025 1.25376 31.8732 -0.614769 24.3506 0.504974C16.8077 1.61122 10.1549 5.57081 5.60874 11.6552C-3.76898 24.2017 -1.11183 41.9826 11.5209 51.2913C20.3754 57.8006 28.8765 63.3724 37.5067 68.3235C78.823 91.9932 125.263 103.993 175.529 104C225.944 104 272.425 91.919 313.674 68.0874C322.256 63.1362 330.717 57.5577 339.537 51.0281C345.639 46.5087 349.601 39.8915 350.695 32.3906C351.796 24.8964 349.893 17.4361 345.34 11.3787C340.787 5.32803 334.128 1.3886 326.571 0.302582Z" fill="white"/>
</svg>
