<svg width="26" height="26" viewBox="0 0 26 26" fill="none" xmlns="http://www.w3.org/2000/svg">
<path fill-rule="evenodd" clip-rule="evenodd" d="M12 1C12 0.447715 12.4477 0 13 0C13.5523 0 14 0.447715 14 1V3C14 3.55228 13.5523 4 13 4C12.4477 4 12 3.55228 12 3V1ZM13 18C15.7614 18 18 15.7614 18 13C18 10.2386 15.7614 8 13 8C10.2386 8 8 10.2386 8 13C8 15.7614 10.2386 18 13 18ZM13 20C16.866 20 20 16.866 20 13C20 9.13401 16.866 6 13 6C9.13401 6 6 9.13401 6 13C6 16.866 9.13401 20 13 20ZM13 22C12.4477 22 12 22.4477 12 23V25C12 25.5523 12.4477 26 13 26C13.5523 26 14 25.5523 14 25V23C14 22.4477 13.5523 22 13 22ZM25 12C25.5523 12 26 12.4477 26 13C26 13.5523 25.5523 14 25 14H23C22.4477 14 22 13.5523 22 13C22 12.4477 22.4477 12 23 12H25ZM4 13C4 12.4477 3.55228 12 3 12H1C0.447715 12 0 12.4477 0 13C0 13.5523 0.447715 14 1 14H3C3.55228 14 4 13.5523 4 13ZM20.7773 3.80867C21.1678 3.41814 21.801 3.41814 22.1915 3.80867C22.582 4.19919 22.582 4.83236 22.1915 5.22288L20.7773 6.6371C20.3867 7.02762 19.7536 7.02762 19.3631 6.6371C18.9725 6.24657 18.9725 5.61341 19.3631 5.22288L20.7773 3.80867ZM6.63679 19.3634C6.24627 18.9728 5.6131 18.9728 5.22258 19.3634L3.80837 20.7776C3.41784 21.1681 3.41784 21.8013 3.80837 22.1918C4.19889 22.5823 4.83206 22.5823 5.22258 22.1918L6.63679 20.7776C7.02732 20.387 7.02732 19.7539 6.63679 19.3634ZM22.1913 20.7773C22.5819 21.1678 22.5819 21.801 22.1913 22.1915C21.8008 22.582 21.1676 22.582 20.7771 22.1915L19.3629 20.7773C18.9724 20.3867 18.9724 19.7536 19.3629 19.3631C19.7534 18.9725 20.3866 18.9725 20.7771 19.3631L22.1913 20.7773ZM6.63664 6.63679C7.02717 6.24627 7.02717 5.6131 6.63664 5.22258L5.22243 3.80837C4.83191 3.41784 4.19874 3.41784 3.80822 3.80837C3.41769 4.19889 3.41769 4.83206 3.80822 5.22258L5.22243 6.63679C5.61295 7.02732 6.24612 7.02732 6.63664 6.63679Z" fill="white"/>
</svg>
