<svg width="25" height="25" viewBox="0 0 25 25" fill="none" xmlns="http://www.w3.org/2000/svg">
<path fill-rule="evenodd" clip-rule="evenodd" d="M10.3769 13.4399L14.0837 2H19.5547L16.5042 8.80859C16.1189 9.66846 16.7482 10.6401 17.6906 10.6401H21.8383L13.4179 20.54L15.1508 15.1372C15.42 14.2979 14.7941 13.4399 13.913 13.4399H10.3769ZM13.5747 0C13.0111 0 12.5117 0.363281 12.338 0.899414L8.17755 13.7393C7.90543 14.5791 8.53149 15.4399 9.41425 15.4399H12.9533L10.4435 23.2651C10.0094 24.6182 11.7508 25.5869 12.6716 24.5044L24.3429 10.7822C25.061 9.93799 24.461 8.64014 23.3527 8.64014H18.7713L21.8217 1.83154C22.207 0.97168 21.5777 0 20.6353 0H13.5747ZM1 19C0.447723 19 0 19.4478 0 20C0 20.5522 0.447723 21 1 21H7C7.55228 21 8 20.5522 8 20C8 19.4478 7.55228 19 7 19H1ZM4 7C4 6.44775 4.44772 6 5 6H7C7.55228 6 8 6.44775 8 7C8 7.55225 7.55228 8 7 8H5C4.44772 8 4 7.55225 4 7ZM1 1C0.447723 1 0 1.44775 0 2C0 2.55225 0.447723 3 1 3H5C5.55228 3 6 2.55225 6 2C6 1.44775 5.55228 1 5 1H1Z" fill="white"/>
</svg>
