<svg width="27" height="15" viewBox="0 0 27 15" fill="none" xmlns="http://www.w3.org/2000/svg">
<path d="M13.9892 10.6863C13.7049 10.8862 13.3354 10.8005 13.1365 10.5434L13.1081 10.5149L11.5448 8.14383L11.5164 8.05813C11.488 8.001 11.4595 7.97243 11.4595 7.94387C11.4595 7.9153 11.4311 7.88673 11.4311 7.8296C11.4027 7.77247 11.4027 7.68677 11.4311 7.62963C11.4311 7.60107 11.4311 7.60107 11.4311 7.60107L12.028 4.77297C12.0848 4.43017 12.4259 4.20163 12.767 4.28733C13.1081 4.37303 13.3354 4.68727 13.2502 5.03007L12.7101 7.62963L14.1597 9.82927C14.3302 10.0864 14.2734 10.4863 13.9892 10.6863ZM25.9835 12.1717L23.9371 1.5735C23.8803 1.2307 23.5676 0.973602 23.2265 1.00217H3.78542C3.44435 1.00217 3.1317 1.2307 3.07486 1.5735L1.02842 13.1144L1 13.2001C1 13.2287 1 13.2858 1 13.3144C1 13.6858 1.31265 14 1.68214 14H21.1233C21.4643 14 21.7486 13.7715 21.8054 13.4287L21.8907 13.0002L23.255 5.3443L24.4771 11.6004H23.795C23.3971 11.6004 23.0844 11.9146 23.0844 12.3146C23.0844 12.7145 23.3971 13.0287 23.795 13.0287H25.3014C25.3582 13.0287 25.3867 13.0287 25.4435 13.0287C25.813 12.943 26.0688 12.5717 25.9835 12.1717ZM20.5548 12.6288H2.53482L4.35388 2.4305H22.3739L20.5548 12.6288Z" fill="white" stroke="white" stroke-width="0.5"/>
</svg>
